<?xml version="1.0" standalone="no"?>
<!DOCTYPE svg PUBLIC "-//W3C//DTD SVG 20010904//EN"
 "http://www.w3.org/TR/2001/REC-SVG-20010904/DTD/svg10.dtd">
<svg version="1.0" xmlns="http://www.w3.org/2000/svg"
 width="2550.000000pt" height="3300.000000pt" viewBox="0 0 2550.000000 3300.000000"
 preserveAspectRatio="xMidYMid meet">
<metadata>
Created by potrace 1.16, written by Peter Selinger 2001-2019
</metadata>
<g transform="translate(0.000000,3300.000000) scale(0.100000,-0.100000)"
fill="#000000" stroke="none">
<path d="M0 16500 l0 -16500 12750 0 12750 0 0 16500 0 16500 -12750 0 -12750
0 0 -16500z m10839 574 c15 -15 14 -15 -8 -4 -14 7 -47 16 -75 21 l-51 8 59
-4 c38 -2 65 -10 75 -21z m446 16 c-3 -5 -11 -10 -16 -10 -6 0 -7 5 -4 10 3 6
11 10 16 10 6 0 7 -4 4 -10z m270 -11 c7 -9 2 -9 -20 -4 -16 5 -50 12 -75 16
-38 7 -34 7 20 3 35 -2 69 -9 75 -15z m-1856 -90 c35 -55 67 -97 71 -92 4 4
28 39 53 78 44 65 46 71 32 92 -15 22 -14 23 13 23 25 0 37 -13 97 -101 78
-116 63 -119 150 21 28 43 55 79 61 80 12 0 -146 -249 -158 -249 -4 -1 -35 40
-69 89 -33 50 -65 90 -69 90 -4 0 -34 -40 -66 -90 -33 -49 -62 -90 -65 -90 -3
0 -44 56 -92 125 l-86 125 32 -1 c29 0 37 -8 96 -100z m633 40 l-4 -60 96 3
c53 2 96 0 96 -4 0 -5 -43 -8 -95 -8 l-95 0 0 -39 c0 -71 1 -71 114 -71 66 0
106 4 114 12 9 9 12 8 12 -5 0 -15 -15 -17 -147 -17 l-148 0 0 125 0 125 30 0
30 0 -3 -61z m208 51 c0 -5 -7 -7 -15 -4 -8 4 -15 8 -15 10 0 2 7 4 15 4 8 0
15 -4 15 -10z m135 0 c-29 -11 -46 -35 -39 -54 6 -16 34 -25 136 -46 60 -12
108 -41 108 -66 0 -21 -45 -64 -67 -64 -14 0 -12 3 7 13 16 8 25 21 25 37 0
27 -29 41 -127 60 -63 12 -108 42 -108 70 0 21 45 60 69 59 12 0 11 -2 -4 -9z
m447 -115 l3 -125 -30 0 -30 0 0 125 0 125 27 0 27 0 3 -125z m600 0 l3 -125
-30 0 -30 0 0 125 0 125 27 0 27 0 3 -125z m168 21 c0 -136 0 -136 132 -136
116 0 168 13 209 51 21 20 29 36 29 61 0 53 -50 91 -150 115 l-55 13 73 -4
c175 -11 243 -114 130 -196 -54 -39 -115 -50 -281 -50 l-142 0 0 125 0 125 28
0 27 0 0 -104z m560 44 l0 -60 58 -2 57 -2 -58 -3 -58 -4 3 -52 3 -52 104 -3
c67 -2 108 1 117 9 11 9 14 8 14 -5 0 -14 -18 -16 -147 -16 l-148 0 0 125 0
125 28 0 c26 0 27 -1 27 -60z m210 43 c0 -10 -4 -14 -8 -8 -4 6 -11 13 -16 18
-5 4 -2 7 7 7 10 0 17 -8 17 -17z m-1298 -5 c-18 -18 -15 -46 7 -57 10 -6 50
-17 89 -25 94 -19 132 -40 132 -71 0 -14 -11 -32 -26 -44 -37 -29 -51 -26 -17
3 l28 25 -20 20 c-13 14 -50 27 -105 38 -81 16 -130 43 -130 73 0 11 36 50 47
50 4 0 2 -5 -5 -12z m1256 -105 c-10 -2 -26 -2 -35 0 -10 3 -2 5 17 5 19 0 27
-2 18 -5z m-1996 -99 c7 -5 49 -11 93 -15 l80 -6 -102 -1 -103 -2 1 38 c0 31
2 33 9 16 5 -12 15 -26 22 -30z m810 -15 l83 -6 -102 -1 -103 -2 0 31 0 31 19
-23 c17 -21 31 -25 103 -30z m3147 -97 c180 3 192 1 172 -30 -7 -11 -9 -11
-14 2 -5 12 -21 16 -72 16 l-66 0 3 -270 3 -270 -35 0 -35 0 3 271 3 271 -80
-3 c-71 -4 -81 -2 -85 14 -3 14 -2 16 9 7 9 -7 73 -10 194 -8z m-4649 0 c0 -5
-14 -21 -31 -38 -80 -75 -138 -227 -125 -323 6 -40 0 -58 -58 -180 -35 -75
-72 -161 -82 -191 l-19 -55 -3 385 c-1 212 0 391 3 397 3 10 44 13 160 13 85
0 155 -4 155 -8z m370 1 c0 -6 -50 -83 -54 -83 -1 0 -22 20 -46 45 l-44 45 72
0 c40 0 72 -3 72 -7z m410 -453 l0 -460 -204 0 -204 0 18 35 c10 19 37 91 60
160 38 111 47 128 76 146 36 22 126 125 150 171 19 38 29 155 16 189 -6 15
-38 45 -73 68 l-62 42 -105 -3 -105 -3 -224 -295 c-330 -435 -323 -415 30 85
136 191 167 230 185 228 16 -2 31 10 58 47 l36 50 174 0 174 0 0 -460z m1861
448 c44 -13 101 -63 126 -111 24 -47 29 -171 9 -239 -37 -127 -131 -208 -242
-208 -96 0 -156 37 -202 125 -35 68 -36 182 -2 269 27 70 97 146 150 163 47
15 114 15 161 1z m1119 -10 c154 -78 171 -338 31 -478 -67 -66 -174 -90 -254
-56 -46 19 -112 97 -127 151 -30 107 7 260 81 334 72 72 183 92 269 49z m1648
2 c23 -10 42 -23 42 -29 0 -5 3 -17 6 -26 5 -11 -10 -4 -39 18 -108 82 -250
48 -311 -75 -79 -158 29 -400 190 -424 54 -8 133 11 179 42 l35 24 -15 -29
c-13 -25 -23 -31 -84 -41 -238 -43 -372 53 -373 267 0 80 31 164 80 217 67 71
199 97 290 56z m361 4 c5 -5 12 -20 16 -33 l8 -25 -32 27 c-43 36 -109 40
-145 9 -43 -38 -54 -111 -22 -151 6 -8 47 -31 92 -51 95 -44 125 -78 132 -151
3 -36 -1 -59 -18 -94 -30 -62 -59 -75 -170 -75 l-90 0 0 53 1 52 14 -32 c15
-36 37 -50 92 -59 48 -7 105 14 128 49 9 14 16 44 17 67 1 54 -24 79 -123 128
-40 21 -82 49 -92 63 -30 42 -33 110 -9 161 30 61 63 79 135 75 31 -2 61 -8
66 -13z m-4610 -31 c0 -35 -1 -36 -10 -13 -15 36 -26 40 -116 40 l-83 0 0
-130 0 -130 78 0 c47 0 83 5 90 12 9 9 12 8 12 -7 0 -19 -6 -20 -90 -17 l-90
3 0 -113 c0 -62 5 -120 10 -128 7 -12 30 -15 100 -15 79 0 94 3 106 19 13 19
14 19 14 -7 l0 -27 -147 0 -148 0 0 275 0 275 138 0 137 0 -1 -37z m303 -180
l173 -217 3 79 c2 44 2 142 0 218 l-3 137 24 0 c18 0 21 -3 12 -13 -7 -9 -12
-103 -13 -276 l-3 -263 -185 232 -185 232 -3 -217 c-2 -152 1 -222 9 -231 9
-11 7 -14 -12 -14 l-24 0 3 251 c2 214 0 255 -13 275 -15 23 -15 24 14 24 26
0 48 -23 203 -217z m639 202 c98 -35 152 -123 153 -245 0 -122 -59 -230 -149
-271 -33 -15 -65 -19 -185 -19 l-145 0 0 275 0 275 141 0 c102 0 154 -4 185
-15z m1127 -13 c83 -44 129 -142 120 -256 -9 -111 -75 -219 -155 -252 -22 -10
-79 -14 -182 -14 l-150 0 10 32 c12 44 12 460 -1 493 l-10 27 162 -4 c146 -3
167 -6 206 -26z m955 -193 l177 -222 0 216 c0 163 -3 217 -12 220 -7 3 2 6 21
6 27 1 31 -2 22 -12 -7 -9 -12 -103 -13 -277 l-3 -264 -185 232 -185 231 -3
-216 c-2 -150 1 -220 9 -229 9 -11 7 -14 -12 -14 l-24 0 0 261 c0 246 -1 261
-19 275 -19 13 -17 14 15 14 34 0 42 -9 212 -221z m780 214 c-18 -7 -19 -513
-1 -531 9 -9 1 -12 -35 -12 -44 0 -47 1 -37 19 6 12 10 112 10 256 0 144 -4
244 -10 256 -10 18 -7 19 37 18 26 0 42 -3 36 -6z m-4833 -712 c-1 -48 -23
-177 -32 -186 -3 -3 -53 -4 -112 -3 l-107 3 50 76 c28 42 78 102 112 134 58
53 64 56 76 39 7 -10 13 -38 13 -63z"/>
<path d="M12375 16711 c-72 -45 -105 -108 -105 -204 0 -76 18 -133 60 -190 74
-100 174 -125 263 -66 119 79 132 272 26 393 -70 80 -176 109 -244 67z"/>
<path d="M13471 16713 c-41 -21 -87 -82 -102 -137 -24 -88 9 -210 76 -284 101
-113 248 -91 321 48 28 52 25 170 -4 231 -63 127 -192 190 -291 142z"/>
<path d="M11762 16500 c3 -234 4 -240 26 -262 20 -20 32 -23 105 -23 99 0 146
20 188 78 55 76 69 204 31 289 -47 107 -137 158 -280 158 l-74 0 4 -240z"/>
<path d="M12860 16506 c0 -136 4 -245 10 -256 20 -37 122 -52 205 -29 25 7 56
28 82 55 93 97 97 268 7 372 -55 65 -102 85 -211 90 l-93 4 0 -236z"/>
</g>
</svg>
